<svg width="968" height="692" viewBox="0 0 968 692" fill="none" xmlns="http://www.w3.org/2000/svg">
<path d="M715.223 1.00092L105.113 2.02309C92.3079 11.6992 94.3509 73.8588 94.6095 115.909C94.8681 157.959 71.0599 172.597 60.5028 182.586C52.0572 190.577 30.7361 226.313 21.1313 243.183C-3.98604 256.798 -0.392302 288.058 4.54424 301.985C53.711 310.967 184.133 452.386 243.198 521.973L245.913 562.837L331.896 639.353L370.997 652.052L424.17 591.085C393.262 535.984 389.087 505.611 342.512 497.219C305.252 490.505 286.055 418.956 281.114 384.02C268.467 348.649 228.136 380.466 203.15 365.148C178.164 349.831 174.842 318.813 174.917 310.038C174.978 303.019 186.04 298.728 191.564 297.459C197.794 292.215 206.858 295.514 210.611 297.819C215.559 293.007 225.219 293.486 229.431 294.327C247.392 290.41 266.997 286.951 274.553 285.711C295.953 285.634 310.234 309.265 314.699 321.09L333.029 389.718C336.104 411.535 352.998 418.215 361.061 418.828L393.891 413.467C419.596 390.69 439.924 390.082 457.472 390.233C475.021 390.383 486.65 380.926 508.154 380.099C525.357 379.438 539.707 396.713 544.732 405.433L561.108 466.15C564.235 478.808 555.861 494.702 551.283 501.067L573.586 543.894L590.184 666.135L749.731 639.452C761.554 642.32 788.289 669.772 800.179 683.14L859.397 666.556L868.258 690.706C912.006 692.517 951.494 678.101 965.77 670.666L934.368 597.164L913.235 463.597C902.852 432.818 874.479 398.11 861.591 384.603C829.751 409.199 815.365 413.945 812.153 413.243L681.714 233.525L618.444 224.338L584.01 200.066L601.534 104.345L636.526 105.395L639.057 65.2614L670.521 66.967L732.223 27.0476L715.223 1.00092Z" stroke="#FF0000" stroke-width="2"/>
</svg>
