<svg width="75" height="54" viewBox="0 0 75 54" fill="none" xmlns="http://www.w3.org/2000/svg">
<path d="M54.3858 1.00084L8.78212 1.07725C7.82499 1.8005 7.9777 6.44673 7.99703 9.58983C8.01635 12.7329 6.23677 13.8271 5.44766 14.5737C4.81638 15.171 3.2227 17.8422 2.50477 19.1031C0.627336 20.1208 0.895956 22.4574 1.26495 23.4984C4.94 24.1698 14.6886 34.7404 19.1035 39.9418L19.3065 42.9963L25.7334 48.7156L28.6561 49.6648L32.6306 45.1077C30.3203 40.9891 30.0083 38.7188 26.5269 38.0915C23.7418 37.5897 22.3069 32.2416 21.9376 29.6303C20.9923 26.9864 17.9777 29.3646 16.1101 28.2197C14.2424 27.0747 13.9941 24.7562 13.9998 24.1004C14.0043 23.5757 14.8312 23.2549 15.244 23.1601C15.7097 22.7682 16.3872 23.0147 16.6678 23.187C17.0376 22.8273 17.7596 22.8631 18.0745 22.926C19.417 22.6332 20.8824 22.3747 21.4472 22.282C23.0468 22.2762 24.1142 24.0426 24.448 24.9265L25.8181 30.0562C26.0479 31.6869 27.3107 32.1862 27.9134 32.2321L30.3673 31.8313C32.2887 30.1288 33.8081 30.0834 35.1198 30.0946C36.4315 30.1059 37.3007 29.399 38.9081 29.3372C40.194 29.2878 41.2666 30.579 41.6422 31.2308L42.8662 35.7692C43.1 36.7153 42.474 37.9034 42.1318 38.3792L43.7989 41.5803L45.0396 50.7174L56.9652 48.723C57.849 48.9373 59.8473 50.9893 60.736 51.9885L65.1624 50.7489L65.8247 52.554C69.0947 52.6894 72.0463 51.6118 73.1134 51.0561L70.7662 45.562L69.1866 35.5784C68.4105 33.2778 66.2897 30.6834 65.3263 29.6738C62.9464 31.5123 61.8711 31.867 61.631 31.8146L51.8812 18.3813L47.1519 17.6945L44.5781 15.8803L45.8879 8.72544L48.5035 8.80399L48.6926 5.8041L51.0445 5.93159L55.6565 2.94775L54.3858 1.00084Z" fill="#E20808" stroke="#FF0000" stroke-width="2"/>
</svg>
